<?xml version="1.0" standalone="no"?>
<!DOCTYPE svg PUBLIC "-//W3C//DTD SVG 20010904//EN"
 "http://www.w3.org/TR/2001/REC-SVG-20010904/DTD/svg10.dtd">
<svg version="1.0" xmlns="http://www.w3.org/2000/svg"
 width="1600.000000pt" height="1600.000000pt" viewBox="0 0 1600.000000 1600.000000"
 preserveAspectRatio="xMidYMid meet">
<metadata>
Created by potrace 1.11, written by Peter Selinger 2001-2013
</metadata>
<g transform="translate(0.000000,1600.000000) scale(0.100000,-0.100000)"
fill="#000000" stroke="none">
<path d="M4830 14093 c-14 -1 -259 -4 -545 -7 -286 -3 -536 -7 -555 -9 -19 -3
-62 -8 -95 -11 -92 -11 -246 -36 -290 -48 -22 -5 -47 -12 -56 -13 -83 -16
-309 -106 -381 -151 -21 -13 -40 -24 -43 -24 -3 0 -20 -10 -38 -22 -282 -200
-448 -422 -596 -795 -67 -168 -119 -351 -210 -743 -68 -292 -143 -616 -147
-640 -3 -14 -20 -88 -39 -165 -19 -77 -36 -151 -39 -165 -5 -27 -130 -570
-146 -635 -15 -62 -59 -253 -64 -278 -2 -12 -9 -40 -14 -62 -6 -22 -13 -51
-16 -65 -8 -42 -15 -71 -20 -88 -3 -9 -7 -28 -10 -42 -2 -14 -14 -65 -26 -115
-12 -49 -24 -101 -27 -115 -6 -31 -4 -20 -37 -165 -15 -66 -32 -138 -38 -160
-6 -22 -17 -69 -25 -105 -20 -92 -15 -72 -88 -387 -37 -158 -68 -295 -70 -303
-2 -8 -13 -58 -25 -110 -58 -252 -101 -437 -106 -458 -2 -12 -14 -62 -25 -110
-12 -48 -22 -94 -24 -102 -6 -27 -105 -458 -186 -809 -44 -190 -81 -354 -83
-365 -2 -12 -16 -73 -31 -136 -15 -63 -28 -122 -30 -130 -11 -50 -118 -515
-130 -565 -8 -33 -57 -249 -110 -480 -52 -231 -100 -438 -105 -460 -6 -22 -13
-51 -16 -65 -9 -46 -84 -374 -100 -440 -9 -36 -18 -76 -21 -90 -2 -14 -15 -70
-28 -125 -13 -55 -40 -172 -60 -260 -20 -88 -38 -167 -40 -175 -16 -63 -52
-244 -61 -305 -3 -22 -8 -51 -10 -65 -20 -125 -26 -402 -12 -530 31 -274 175
-527 392 -689 75 -56 226 -131 331 -165 97 -32 284 -72 380 -81 39 -4 79 -9
90 -11 77 -15 1027 -19 5475 -19 4482 1 5424 4 5495 19 11 2 45 7 76 10 31 4
66 8 77 11 11 2 37 6 58 9 286 46 611 187 804 349 309 260 501 600 629 1121
22 88 42 172 45 186 2 14 14 68 26 120 12 52 24 106 26 120 3 14 9 39 14 55
14 49 54 229 52 237 -1 4 3 20 9 35 6 15 12 39 14 53 2 14 15 72 29 130 13 58
27 116 29 130 3 14 12 57 21 95 28 115 38 159 42 180 9 46 13 66 42 190 17 72
51 222 77 335 40 180 55 242 60 260 1 5 22 99 29 135 3 11 34 151 70 310 37
160 68 299 70 310 2 11 23 101 46 200 23 99 44 191 47 205 2 14 9 45 14 70 6
25 13 56 15 70 3 14 7 33 10 42 3 9 7 25 9 35 2 10 11 50 20 88 19 87 20 89
46 205 11 52 30 133 41 180 11 47 22 96 25 110 2 13 13 63 24 110 11 47 24
103 28 125 5 22 29 131 55 243 25 111 48 213 50 225 2 12 16 76 31 142 15 66
28 126 30 135 2 8 8 33 14 55 5 22 13 55 16 73 3 19 15 73 26 120 11 48 22 96
25 107 19 93 37 175 44 200 5 17 11 44 14 60 2 17 14 71 25 120 12 50 26 113
32 140 23 103 27 124 63 285 20 91 43 192 51 225 15 65 53 235 61 275 3 14 10
45 15 70 6 25 12 52 14 60 2 8 22 98 44 200 23 102 43 194 45 205 3 11 38 173
80 361 41 187 77 351 79 365 3 13 10 42 15 64 6 22 19 76 28 120 18 91 17 85
39 185 45 200 56 247 61 270 2 14 16 75 29 135 13 61 26 121 28 135 3 14 12
63 20 110 78 431 44 756 -107 1015 -54 92 -208 247 -303 304 -122 73 -320 146
-447 166 -159 25 -229 33 -364 42 -79 5 -9723 11 -9782 6z m9845 -646 c22 -4
69 -12 105 -17 180 -27 308 -78 372 -148 92 -101 108 -324 48 -662 -12 -68
-14 -74 -39 -185 -11 -49 -22 -101 -25 -115 -2 -14 -26 -119 -51 -235 -26
-115 -53 -237 -61 -271 -20 -91 -22 -103 -38 -175 -8 -36 -17 -77 -20 -90 -2
-13 -19 -87 -36 -164 -18 -77 -33 -147 -35 -155 -11 -47 -58 -262 -66 -300
-12 -59 -134 -610 -160 -725 -12 -49 -22 -97 -24 -105 -2 -8 -9 -37 -15 -65
-6 -27 -14 -61 -16 -75 -3 -14 -12 -54 -20 -90 -9 -36 -18 -76 -20 -89 -3 -12
-12 -53 -20 -90 -9 -36 -18 -75 -20 -86 -2 -11 -6 -31 -9 -45 -3 -14 -7 -34
-9 -45 -3 -11 -14 -58 -25 -105 -11 -47 -22 -97 -25 -110 -7 -36 -58 -264 -71
-320 -14 -61 -25 -110 -30 -139 -3 -19 -8 -37 -10 -41 -2 -4 -7 -20 -9 -37 -3
-16 -21 -99 -40 -184 -19 -85 -37 -165 -40 -179 -3 -14 -7 -34 -10 -45 -6 -26
-67 -295 -71 -315 -2 -8 -38 -168 -80 -355 -42 -187 -79 -351 -81 -365 -3 -14
-10 -43 -16 -65 -5 -22 -12 -51 -15 -65 -2 -14 -8 -41 -13 -60 -5 -19 -11 -46
-14 -60 -2 -14 -21 -97 -41 -185 -21 -88 -41 -178 -45 -200 -5 -22 -23 -103
-40 -180 -17 -77 -33 -147 -35 -155 -2 -8 -15 -67 -30 -130 -78 -340 -103
-452 -111 -494 -2 -16 -7 -32 -9 -36 -2 -4 -7 -21 -10 -39 -3 -18 -15 -72 -26
-119 -11 -48 -22 -96 -25 -107 -2 -10 -20 -91 -40 -180 -20 -88 -37 -167 -39
-175 -2 -8 -18 -76 -35 -150 -17 -74 -33 -151 -36 -170 -3 -19 -8 -38 -10 -41
-3 -5 -71 -298 -99 -429 -2 -8 -13 -58 -25 -110 -12 -52 -24 -106 -26 -120 -3
-14 -16 -70 -29 -125 -14 -55 -26 -111 -29 -125 -9 -56 -59 -241 -88 -325 -92
-273 -236 -480 -421 -601 -85 -57 -241 -124 -317 -137 -14 -3 -43 -10 -65 -15
-22 -6 -60 -14 -85 -17 -25 -3 -57 -8 -73 -11 -136 -22 -544 -24 -5447 -24
-4170 0 -5356 3 -5410 13 -14 3 -54 8 -90 11 -140 13 -296 52 -389 99 -150 74
-204 191 -202 427 2 176 24 310 116 710 19 85 37 164 40 175 2 11 15 70 29
130 15 61 29 124 32 140 3 17 11 55 19 85 8 30 16 66 19 80 3 14 19 86 36 160
18 74 34 144 36 155 2 11 6 29 9 40 2 11 25 110 50 220 26 110 48 208 50 218
2 9 20 86 39 170 19 83 85 370 146 637 118 517 137 601 147 640 3 14 7 30 9
35 1 6 16 71 33 145 17 74 44 196 61 270 17 74 33 142 35 150 2 8 11 47 20 85
9 39 19 81 21 94 3 12 12 53 20 90 9 36 17 74 20 84 2 10 5 26 8 35 3 9 7 28
10 42 2 14 9 43 14 65 6 22 13 51 16 65 4 25 11 52 86 375 58 250 67 289 131
570 22 99 42 187 44 195 4 15 71 305 80 345 2 11 6 29 9 40 36 153 46 195 50
215 2 14 14 66 26 115 12 50 23 98 25 109 7 33 64 277 115 496 43 181 64 274
85 370 1 8 8 33 13 55 6 22 13 52 16 68 3 15 7 35 10 45 3 9 7 28 10 42 3 14
7 35 10 48 4 12 8 30 10 40 2 9 11 47 20 83 8 37 17 78 20 90 3 13 7 33 10 44
4 16 87 375 101 435 4 19 46 200 50 220 89 394 143 604 195 753 100 290 221
474 382 578 99 63 262 123 393 143 22 4 54 8 70 11 17 3 46 7 65 10 19 3 98 8
175 11 77 4 141 8 143 9 7 6 10622 -2 10657 -8z"/>
<path d="M5955 12496 c-82 -16 -131 -33 -205 -71 -90 -46 -128 -72 -239 -166
-294 -251 -355 -539 -179 -843 66 -114 133 -198 318 -396 59 -63 118 -127 131
-141 118 -131 281 -308 309 -339 8 -9 69 -76 135 -150 66 -74 129 -144 140
-155 11 -12 51 -57 90 -100 38 -44 86 -98 107 -120 20 -22 46 -51 58 -65 11
-14 35 -41 53 -60 18 -19 62 -69 97 -110 36 -41 74 -83 85 -95 11 -11 52 -56
90 -100 39 -44 74 -85 80 -91 48 -53 91 -102 155 -174 41 -47 82 -92 90 -100
9 -8 28 -31 44 -50 16 -19 49 -58 75 -86 124 -137 375 -420 536 -604 60 -69
116 -132 124 -141 9 -9 41 -45 72 -80 31 -35 77 -88 103 -117 l46 -53 -107
-83 c-60 -45 -153 -116 -208 -157 -55 -41 -106 -80 -115 -86 -8 -7 -116 -88
-240 -180 -124 -92 -355 -264 -515 -383 -159 -119 -348 -258 -418 -310 -71
-52 -239 -176 -372 -275 -134 -99 -324 -239 -422 -312 -98 -72 -293 -216 -435
-320 -141 -103 -357 -262 -480 -352 -405 -298 -444 -327 -604 -443 -43 -31
-155 -113 -249 -182 -93 -69 -181 -133 -194 -143 -84 -62 -186 -150 -248 -217
-107 -115 -156 -209 -169 -326 -28 -264 267 -641 541 -691 79 -15 207 -5 286
21 77 26 201 87 276 136 30 20 500 367 1046 770 546 404 1079 798 1185 876
107 79 255 188 330 244 76 55 232 170 347 255 116 84 212 157 213 161 2 5 8 8
13 8 5 0 17 7 26 15 27 22 992 731 1062 780 86 60 856 622 971 708 117 88 232
202 285 282 127 191 105 399 -65 626 -48 64 -112 136 -306 344 -56 61 -112
121 -123 134 -17 20 -134 147 -231 252 -14 15 -45 49 -69 75 -25 27 -68 74
-95 104 -98 106 -225 245 -243 266 -31 36 -164 182 -202 222 -33 35 -166 182
-201 222 -19 22 -170 189 -190 210 -8 8 -73 81 -145 160 -71 80 -132 147 -135
150 -3 3 -45 50 -95 105 -49 55 -92 102 -95 105 -3 3 -62 68 -130 145 -69 77
-134 149 -145 161 -11 11 -49 54 -85 94 -36 40 -76 85 -90 100 -22 23 -125
139 -170 190 -8 9 -47 52 -87 96 -39 43 -80 89 -90 101 -10 12 -52 58 -93 103
-41 45 -82 91 -92 102 -253 292 -390 415 -540 486 -127 61 -277 82 -403 58z"/>
<path d="M7089 5188 c-154 -39 -271 -138 -347 -293 -54 -109 -72 -194 -72
-330 0 -129 24 -223 83 -337 80 -153 236 -268 387 -284 36 -4 765 -7 1620 -7
1452 0 1559 1 1615 17 221 65 356 232 410 506 6 29 6 183 1 220 -39 250 -186
439 -396 506 -51 16 -159 17 -1643 19 -1492 1 -1592 0 -1658 -17z"/>
</g>
</svg>
